<svg width="128" height="128" viewBox="0 0 128 128" fill="none" xmlns="http://www.w3.org/2000/svg">
  <rect width="128" height="128" rx="24" fill="#6366f1"/>
  <path d="M64 24C41.92 24 24 41.92 24 64s17.92 40 40 40 40-17.92 40-40S86.08 24 64 24zm-4 71.72c-15.8-1.96-28-15.4-28-31.72 0-2.48.32-4.84.84-7.16L36 60v4c0 4.4 3.6 8 8 8v7.72zm27.6-10.16c-1.04-3.24-4-5.56-7.6-5.56h-4v-12c0-2.2-1.8-4-4-4h-16v-8h8c2.2 0 4-1.8 4-4v-8h8c4.4 0 8-3.6 8-8v-1.64c11.72 4.76 20 16.24 20 29.64 0 8.32-3.2 15.88-8.4 21.56z" fill="white"/>
</svg>
